<svg id="Capa_1" enable-background="new 0 0 512 512" height="512" viewBox="0 0 512 512" width="512" xmlns="http://www.w3.org/2000/svg" xmlns:xlink="http://www.w3.org/1999/xlink"><linearGradient id="SVGID_1_" gradientUnits="userSpaceOnUse" x1="74.981" x2="437.019" y1="437.019" y2="74.981"><stop offset="0" stop-color="#00aa45"/><stop offset="1" stop-color="#d3ff33"/></linearGradient><radialGradient id="SVGID_2_" cx="256" cy="256" gradientUnits="userSpaceOnUse" r="256"><stop offset="0" stop-color="#00aa45"/><stop offset=".109" stop-color="#0fb044" stop-opacity=".891"/><stop offset=".3171" stop-color="#35bf40" stop-opacity=".683"/><stop offset=".6028" stop-color="#73d83b" stop-opacity=".397"/><stop offset=".9518" stop-color="#c7fa34" stop-opacity=".048"/><stop offset="1" stop-color="#d3ff33" stop-opacity="0"/></radialGradient><linearGradient id="lg1"><stop offset="0" stop-color="#b8ef5c"/><stop offset="1" stop-color="#fff"/></linearGradient><linearGradient id="SVGID_3_" gradientTransform="matrix(.707 -.707 .707 .707 -106.039 256)" gradientUnits="userSpaceOnUse" x1="166.961" x2="376.716" xlink:href="#lg1" y1="279.715" y2="69.961"/><linearGradient id="lg2"><stop offset="0" stop-color="#e6fe7f"/><stop offset=".3204" stop-color="#edfea5"/><stop offset="1" stop-color="#fff"/></linearGradient><linearGradient id="SVGID_4_" gradientTransform="matrix(.707 -.707 .707 .707 -106.039 256)" gradientUnits="userSpaceOnUse" x1="95.719" x2="305.814" xlink:href="#lg2" y1="284.871" y2="74.776"/><linearGradient id="SVGID_5_" gradientTransform="matrix(.707 -.707 .707 .707 -106.039 256)" gradientUnits="userSpaceOnUse" x1="168.267" x2="374.873" xlink:href="#lg1" y1="538.873" y2="332.267"/><linearGradient id="SVGID_6_" gradientTransform="matrix(.707 -.707 .707 .707 -106.039 256)" gradientUnits="userSpaceOnUse" x1="95.695" x2="305.814" xlink:href="#lg2" y1="547.747" y2="337.628"/><linearGradient id="SVGID_7_" gradientUnits="userSpaceOnUse" x1="-29.75" x2="214.939" xlink:href="#lg2" y1="537.794" y2="293.106"/><linearGradient id="SVGID_8_" gradientUnits="userSpaceOnUse" x1="166.438" x2="411.126" xlink:href="#lg2" y1="345.598" y2="100.91"/><linearGradient id="SVGID_9_" gradientUnits="userSpaceOnUse" x1="225.832" x2="426.555" xlink:href="#lg1" y1="286.305" y2="85.583"/><linearGradient id="SVGID_10_" gradientUnits="userSpaceOnUse" x1="31.061" x2="227.226" xlink:href="#lg1" y1="477.03" y2="280.866"/><g><circle cx="256" cy="256" fill="url(#SVGID_1_)" r="256"/><circle cx="256" cy="256" fill="url(#SVGID_2_)" r="256"/><path d="m179.293 211.977c7.207 7.189 14.431 14.398 21.665 21.621 8.99 8.976 23.597 8.974 32.605-.035 9.01-9.008 9.01-23.614.036-32.605-7.222-7.234-14.43-14.459-21.617-21.666-10.879 10.905-21.782 21.808-32.689 32.685z" fill="url(#SVGID_3_)"/><path d="m201.911 92.539c-12.607 12.807-25.303 25.632-38.051 38.437-12.353-12.419-24.594-24.74-36.686-36.924-8.583-8.662-22.855-8.14-32.03 1.031-9.174 9.173-9.706 23.45-1.053 32.042 12.174 12.104 24.487 24.355 36.9 36.715-12.808 12.746-25.636 25.442-38.445 38.051-9.103 8.958-9.24 23.235-.272 32.042 8.967 8.805 23.572 8.804 32.605-.136 12.728-12.588 25.484-25.253 38.231-37.957 5.382 5.366 10.777 10.746 16.182 16.137 8.957 8.933 23.558 8.908 32.574-.111 9.017-9.016 9.044-23.617.114-32.575-5.39-5.406-10.769-10.802-16.134-16.185 12.705-12.746 25.369-25.501 37.955-38.228 8.941-9.033 8.939-23.639.139-32.605-8.802-8.969-23.073-8.835-32.029.266z" fill="url(#SVGID_4_)"/><path d="m363.937 396.926c6.993 7.037 13.943 14.036 20.843 20.991 8.573 8.65 22.834 8.117 32.016-1.058 9.177-9.176 9.725-23.448 1.081-32.028-6.948-6.908-13.942-13.864-20.975-20.862-11.015 10.952-22.011 21.945-32.965 32.957z" fill="url(#SVGID_5_)"/><path d="m387.161 278.221c-12.732 12.589-25.492 25.255-38.243 37.962-12.552-12.512-25.175-25.104-37.831-37.739-8.99-8.971-23.594-8.971-32.603.04-9.009 9.009-9.014 23.614-.041 32.603 12.634 12.657 25.224 25.281 37.732 37.836-12.707 12.75-25.373 25.508-37.959 38.239-8.939 9.036-8.947 23.64-.154 32.603 8.796 8.967 23.06 8.822 32.016-.283 12.609-12.813 25.308-25.642 38.059-38.452 5.289 5.318 10.557 10.617 15.801 15.895 8.686 8.751 23.025 8.35 32.164-.784 9.135-9.135 9.548-23.48.801-32.173-5.275-5.248-10.572-10.52-15.887-15.812 12.813-12.749 25.645-25.448 38.461-38.058 9.108-8.958 9.254-23.23.29-32.028-8.965-8.797-23.569-8.791-32.606.151z" fill="url(#SVGID_6_)"/><path d="m155.448 260.302c-50.929.15-92.372 40.429-91.016 89.905 1.457 49.459 43.989 91.938 93.443 93.382 49.475 1.342 89.731-40.076 89.868-91.006-.003-50.948-41.348-92.293-92.295-92.281zm1.39 137.466c-25.071-.518-46.054-21.484-46.578-46.553-.515-25.075 19.927-45.224 45.365-45.09 25.444.152 46.13 20.837 46.291 46.279.14 25.436-20.003 45.871-45.078 45.364z" fill="url(#SVGID_7_)"/><path d="m352.167 66.451c-49.474-1.343-89.732 40.076-89.868 91.006.005 50.949 41.346 92.294 92.295 92.281 50.928-.151 92.372-40.429 91.016-89.905-1.459-49.457-43.991-91.939-93.443-93.382zm2.25 137.466c-25.444-.152-46.13-20.837-46.291-46.278-.14-25.438 20.002-45.874 45.078-45.365 25.07.517 46.053 21.485 46.578 46.554.514 25.071-19.926 45.223-45.365 45.089z" fill="url(#SVGID_8_)"/><path d="m369.907 226.811c-50.95-.156-92.294-41.503-92.411-92.458-.051-13.878 2.932-27.03 8.252-38.797-14.502 16.275-23.469 38.037-23.45 61.901.005 50.949 41.346 92.294 92.295 92.281 37.044-.014 69.076-21.556 83.258-52.119-16.568 17.915-40.888 29.301-67.944 29.192z" fill="url(#SVGID_9_)"/><path d="m172.404 420.912c-49.767-1.1-92.126-43.332-93.172-93.003-.248-13.595 2.654-26.439 8.049-37.987-14.738 15.969-23.463 37.01-22.849 60.286 1.459 49.459 43.988 91.938 93.443 93.382 36.091.967 66.997-20.668 81.455-52.167-16.628 18.538-40.374 30.007-66.926 29.489z" fill="url(#SVGID_10_)"/></g></svg>